<?xml version="1.0" standalone="no"?>
<!DOCTYPE svg PUBLIC "-//W3C//DTD SVG 20010904//EN" "http://www.w3.org/TR/2001/REC-SVG-20010904/DTD/svg10.dtd">
<svg xmlns="http://www.w3.org/2000/svg" version="1.0" width="418.000000pt" height="327.000000pt" viewBox="0 0 418.000000 327.000000" preserveAspectRatio="xMidYMid meet">
<metadata>
Created by potrace 1.16, written by Peter Selinger 2001-2019
<meta name="Producer" content="Online-Convert"/></metadata>
<g transform="translate(0.000000,327.000000) scale(0.100000,-0.100000)" fill="#000000" stroke="none">
<path d="M3033 3053 c-10 -10 -14 -15 -9 -10 6 4 26 6 46 6 22 -1 27 -3 13 -6 l-23 -4 26 -24 c15 -14 31 -22 36 -19 5 4 9 -2 8 -12 -4 -36 0 -55 10 -49 6 3 7 -1 4 -9 -4 -12 0 -16 16 -16 19 0 20 2 10 15 -7 9 -11 17 -9 19 2 2 12 -7 22 -20 10 -14 13 -24 7 -24 -7 0 -5 -6 4 -15 18 -18 30 -20 23 -2 -2 6 2 18 9 25 12 11 14 8 14 -13 0 -15 -5 -36 -11 -48 -10 -21 -10 -21 5 -3 11 14 16 42 16 95 0 82 -3 89 -40 114 -35 24 -151 24 -177 0z"/>
<path d="M1136 2101 c-14 -15 -16 -34 -13 -102 l3 -84 2 86 c1 50 7 90 14 97 7 7 32 11 58 11 25 -1 35 -4 22 -6 -16 -3 -22 -9 -18 -20 3 -8 6 -17 6 -19 0 -3 5 -2 10 1 6 3 10 -1 10 -9 0 -9 -8 -16 -17 -17 -10 0 0 -9 22 -19 21 -10 43 -16 48 -13 5 3 6 -8 2 -25 -5 -27 -4 -30 13 -25 12 3 22 -2 26 -13 6 -15 9 -16 16 -4 16 26 25 0 9 -28 -14 -25 -20 -27 -104 -33 l-90 -5 87 -2 c83 -2 87 -1 107 24 17 22 21 41 21 105 0 110 -10 119 -128 119 -74 0 -92 -3 -106 -19z"/>
<path d="M1870 1874 c-9 -3 -22 -15 -29 -27 -13 -21 -13 -22 6 -4 11 10 34 17 54 16 32 -1 32 -2 9 -9 -14 -4 -19 -8 -12 -9 6 -1 12 -8 12 -16 0 -9 10 -19 23 -24 12 -5 39 -24 59 -43 27 -25 35 -37 28 -48 -14 -23 -12 -32 7 -28 10 2 21 16 25 33 5 24 6 20 5 -17 -1 -25 1 -44 6 -41 4 2 7 44 7 93 0 84 -1 90 -26 109 -21 17 -40 21 -93 20 -36 -1 -73 -3 -81 -5z"/>
<path d="M2811 1643 c11 -3 14 -12 11 -33 -2 -18 0 -30 7 -30 6 0 8 7 5 15 -9 21 -1 19 30 -10 15 -14 24 -30 21 -35 -3 -6 3 -10 14 -10 11 0 26 -10 32 -22 7 -13 18 -29 26 -36 7 -7 13 -21 13 -30 0 -32 19 3 23 43 l4 40 1 -46 c3 -67 -15 -79 -113 -79 -60 0 -83 4 -99 18 -21 17 -21 17 -2 -5 17 -20 28 -23 101 -23 72 0 84 3 103 23 19 20 22 35 22 110 0 110 -8 117 -130 116 -47 -1 -78 -3 -69 -6z"/>
<path d="M930 470 c0 -5 15 -10 33 -11 26 0 28 -2 12 -8 -11 -5 -24 -6 -30 -3 -5 3 -4 -1 3 -10 9 -11 10 -18 2 -23 -5 -3 -10 -11 -10 -18 0 -8 3 -8 12 1 22 22 48 14 55 -18 4 -22 9 -28 18 -20 15 12 35 -7 35 -33 0 -16 3 -17 14 -8 12 10 13 9 9 -7 -2 -11 0 -23 7 -27 7 -4 14 2 18 16 6 23 6 23 13 -6 4 -19 7 2 8 57 1 116 -10 128 -121 128 -45 0 -78 -4 -78 -10z"/>
</g>
</svg>
